<?xml version="1.0" standalone="no"?>
<!DOCTYPE svg PUBLIC "-//W3C//DTD SVG 20010904//EN"
 "http://www.w3.org/TR/2001/REC-SVG-20010904/DTD/svg10.dtd">
<svg version="1.0" xmlns="http://www.w3.org/2000/svg"
 width="404.000000pt" height="316.000000pt" viewBox="0 0 404.000000 316.000000"
 preserveAspectRatio="xMidYMid meet">
<metadata>
Created by potrace 1.15, written by Peter Selinger 2001-2017
</metadata>
<g transform="translate(0.000000,316.000000) scale(0.100000,-0.100000)"
fill="#000000" stroke="none">
<path d="M1598 3148 c7 -9 26 -21 42 -28 17 -7 30 -16 30 -20 0 -4 -53 -10
-117 -13 -65 -3 -149 -12 -188 -20 -38 -8 -92 -18 -120 -22 -46 -6 -48 -8 -30
-21 10 -8 36 -14 56 -14 51 0 58 -16 12 -25 -59 -11 -387 -132 -376 -138 6 -4
29 -9 51 -13 23 -4 42 -9 42 -13 0 -3 -37 -16 -82 -29 -45 -12 -122 -40 -171
-62 -49 -22 -97 -40 -106 -40 -28 0 10 -20 39 -20 65 -1 51 -18 -65 -79 -64
-34 -137 -70 -163 -80 l-45 -18 33 -11 c18 -7 41 -12 51 -12 39 0 15 -18 -121
-88 -77 -41 -142 -77 -145 -82 -3 -4 13 -11 35 -15 22 -4 40 -10 40 -14 0 -4
-37 -31 -83 -58 -45 -28 -102 -69 -127 -92 l-45 -40 116 58 c64 32 147 69 183
81 36 12 69 26 72 32 4 6 -5 22 -21 36 -34 29 -44 21 137 104 75 35 138 68
138 74 0 6 -11 17 -25 24 -14 7 -25 17 -25 21 0 7 129 64 228 99 34 13 65 27
68 32 3 5 -5 17 -18 28 -29 25 -21 31 86 61 120 33 176 58 176 80 0 10 -4 21
-10 24 -5 3 -10 10 -10 15 0 11 101 44 214 70 102 24 118 33 110 65 -5 20 -1
23 48 28 29 4 110 7 181 7 126 0 128 0 139 25 10 22 17 25 63 25 29 0 92 -11
139 -25 47 -14 93 -25 101 -25 8 0 17 11 21 25 5 19 13 25 33 25 45 0 144 -38
220 -85 l71 -44 27 23 c25 22 29 23 68 10 22 -8 67 -35 100 -59 33 -25 65 -45
72 -45 8 0 21 16 30 35 9 19 22 35 29 35 7 0 43 -20 80 -45 37 -25 69 -43 71
-41 12 12 -35 80 -82 120 -64 55 -197 148 -203 141 -2 -2 1 -18 7 -36 6 -18
11 -38 11 -44 0 -7 -58 17 -132 56 -73 38 -145 69 -161 69 l-28 0 17 -31 c19
-37 25 -37 -93 5 -62 22 -89 26 -188 26 -84 0 -114 -3 -109 -11 5 -8 -5 -10
-32 -5 -22 3 -115 9 -209 12 -152 6 -169 5 -157 -8z"/>
<path d="M3025 2851 c-84 -41 -292 -250 -305 -306 -18 -79 25 -132 165 -202
133 -67 141 -74 191 -179 33 -70 52 -98 74 -109 63 -33 91 -11 135 105 34 90
64 133 137 199 68 61 93 105 103 177 13 99 -28 177 -132 251 -131 93 -261 116
-368 64z"/>
<path d="M2085 2729 c-80 -12 -157 -35 -230 -69 -62 -28 -150 -88 -142 -96 2
-2 33 9 69 26 129 60 257 73 396 40 104 -25 113 -25 146 1 40 32 33 68 -18 85
-53 19 -150 24 -221 13z"/>
<path d="M2041 2594 c-26 -33 -29 -118 -6 -151 20 -29 75 -46 107 -34 52 20
110 125 93 169 -5 12 -10 9 -25 -16 -44 -72 -100 -64 -100 14 0 40 -2 44 -24
44 -15 0 -33 -11 -45 -26z"/>
<path d="M3590 2563 c56 -41 90 -76 90 -94 0 -11 -21 -34 -50 -56 -27 -20 -50
-40 -50 -43 1 -3 32 -26 70 -53 70 -47 115 -97 94 -104 -6 -2 -19 -9 -28 -16
-15 -11 -12 -18 35 -65 46 -47 51 -55 45 -85 -9 -46 -38 -81 -70 -85 -23 -3
-27 -7 -21 -25 18 -62 17 -92 -5 -119 -15 -20 -31 -28 -52 -28 -25 0 -29 -3
-23 -17 25 -59 29 -95 14 -121 -8 -15 -25 -28 -37 -30 -18 -3 -26 8 -53 67
-22 50 -37 71 -50 71 -27 0 -28 -21 -3 -72 37 -74 30 -188 -12 -188 -16 0 -50
67 -60 120 -10 47 -35 35 -50 -24 -7 -27 -20 -56 -29 -65 -24 -24 -35 1 -35
84 0 88 -15 119 -58 123 -29 3 -32 1 -32 -25 0 -16 -6 -52 -13 -80 -13 -51
-13 -52 7 -50 18 2 21 -5 27 -48 3 -28 14 -65 23 -83 16 -31 77 -73 83 -56 2
5 13 25 24 44 20 33 23 34 33 16 38 -66 98 -76 148 -26 16 17 31 30 33 30 1 0
12 -35 24 -78 66 -246 67 -523 2 -706 -28 -81 -8 -58 23 27 73 192 75 454 7
720 -16 59 -25 109 -22 111 3 2 23 6 44 10 20 4 46 16 56 27 19 21 19 21 41
-28 97 -220 145 -482 120 -661 -6 -46 -13 -91 -16 -100 -5 -15 -4 -15 5 -1 17
26 41 185 41 268 0 165 -44 355 -124 544 -26 59 -46 111 -46 116 0 10 41 27
87 36 30 6 34 3 66 -47 40 -62 90 -160 123 -238 l23 -55 1 49 c0 58 -47 165
-145 325 -36 59 -65 112 -65 119 0 7 20 21 45 32 39 17 45 23 45 48 0 41 -26
109 -56 149 -27 35 -26 36 24 33 41 -2 41 12 3 73 -31 48 -107 127 -122 127
-5 0 -9 5 -9 10 0 7 18 8 50 4 28 -4 50 -4 50 0 0 21 -44 87 -76 116 -46 40
-129 79 -181 86 l-38 5 25 -18z"/>
<path d="M3140 1858 c0 -37 -43 -103 -68 -106 -36 -5 -51 -49 -49 -138 2 -97
-6 -114 -39 -83 -12 12 -26 34 -29 50 -7 29 -30 56 -38 42 -2 -4 -12 -33 -22
-63 -23 -70 -62 -150 -75 -150 -5 0 -14 9 -20 20 -9 16 -1 41 40 132 42 96 48
115 36 126 -8 8 -20 11 -26 7 -16 -10 -70 -128 -106 -230 -28 -81 -81 -175
-98 -175 -6 0 -22 11 -36 25 -34 33 -48 27 -96 -40 -22 -30 -42 -55 -46 -55
-15 0 71 176 137 282 42 68 48 98 19 98 -18 0 -74 -87 -131 -206 -38 -79 -49
-93 -65 -88 -14 4 -31 -8 -68 -48 l-49 -53 -10 27 c-5 14 -17 31 -27 36 -15 8
-12 17 26 73 24 35 58 83 76 107 32 42 35 72 8 72 -14 0 -79 -88 -145 -197
-33 -55 -39 -60 -97 -77 -34 -11 -63 -17 -65 -15 -2 2 -11 17 -21 32 -17 27
-21 29 -79 26 -96 -3 -95 -3 -99 38 -3 41 -21 55 -93 73 -31 8 -44 18 -55 42
-11 25 -35 43 -96 76 -74 38 -82 46 -88 77 -6 28 -17 42 -56 68 -26 17 -55 43
-64 57 -14 23 -15 23 -16 5 0 -11 18 -45 40 -74 33 -44 40 -60 35 -82 -6 -26
-1 -32 64 -74 63 -39 71 -49 71 -75 0 -27 6 -34 53 -55 28 -14 57 -25 62 -25
6 0 21 -7 33 -16 18 -12 20 -19 12 -34 -9 -16 -5 -22 19 -35 16 -8 60 -23 98
-33 65 -17 68 -19 68 -47 1 -38 26 -42 120 -20 37 8 69 14 70 13 2 -2 -12 -48
-31 -103 -56 -168 -78 -352 -55 -470 5 -30 9 -5 13 100 4 97 13 164 28 220 26
97 78 232 91 241 16 10 23 -4 21 -41 -4 -53 19 -46 122 39 25 21 49 36 53 33
3 -4 -4 -44 -15 -89 -11 -46 -26 -121 -33 -167 -15 -104 -6 -308 15 -371 14
-40 15 -41 11 -10 -22 147 -14 313 22 459 15 58 24 72 80 128 36 35 68 63 73
63 16 0 28 -34 23 -63 -7 -34 4 -34 52 -2 20 15 39 25 40 23 1 -2 -2 -34 -7
-73 -6 -38 -8 -135 -5 -215 6 -159 28 -269 72 -361 14 -30 23 -45 19 -34 -50
166 -57 210 -58 385 0 144 4 195 23 289 12 63 27 123 32 133 14 25 29 13 29
-23 0 -22 5 -29 19 -29 27 0 95 79 128 149 15 33 33 61 39 61 6 0 19 -16 30
-35 23 -43 32 -43 68 -6 23 24 30 44 39 108 6 43 12 80 14 82 1 2 9 -2 18 -9
21 -17 25 -11 41 57 24 102 15 243 -16 243 -5 0 -10 -10 -10 -22z"/>
<path d="M980 1749 c-61 -25 -100 -85 -100 -154 0 -117 100 -195 211 -165 82
22 139 113 123 196 -8 41 -53 98 -95 120 -32 16 -102 18 -139 3z m140 -65 c52
-47 69 -98 46 -143 -17 -33 -69 -71 -96 -71 -10 0 -7 7 10 20 29 22 25 24 -17
9 -42 -14 -96 9 -123 53 -26 43 -25 75 2 118 l23 35 3 -32 c4 -38 19 -42 50
-13 25 24 27 31 10 48 -9 9 -5 12 20 12 23 0 44 -10 72 -36z"/>
<path d="M754 1486 c-98 -44 -100 -171 -4 -221 37 -19 64 -19 106 1 42 20 64
59 64 114 0 80 -92 139 -166 106z m84 -46 c12 -12 22 -30 22 -41 0 -11 7 -22
15 -25 8 -4 15 -10 15 -15 0 -16 -63 -49 -93 -49 -38 0 -77 40 -77 79 0 26 4
30 22 28 17 -1 24 4 26 21 4 29 40 30 70 2z"/>
<path d="M410 1337 c-86 -29 -168 -85 -261 -177 -99 -98 -149 -173 -149 -223
l0 -38 49 58 c64 76 174 181 233 221 97 67 207 94 222 55 12 -31 -23 -107 -85
-184 -20 -25 -20 -27 -4 -77 29 -88 16 -128 -66 -217 l-69 -75 0 -85 0 -86
-51 -55 -52 -54 -8 -97 c-10 -118 -17 -151 -35 -181 -21 -32 -64 -29 -103 7
l-31 29 0 -63 c0 -80 16 -95 105 -95 52 0 65 4 96 30 46 37 75 99 89 187 10
62 15 72 57 112 65 63 87 117 87 218 l1 82 43 31 c50 36 102 112 102 149 0 21
5 15 24 -25 13 -28 29 -55 35 -58 7 -5 11 -50 11 -124 l0 -117 -175 -238 c-96
-130 -175 -239 -175 -242 0 -3 24 -5 54 -5 l53 0 48 72 c26 40 85 125 130 188
136 191 137 193 143 326 4 106 6 115 23 111 36 -10 18 38 -22 59 -40 20 -69
82 -69 145 0 65 23 104 75 129 37 18 62 20 244 20 124 0 219 -4 242 -11 57
-18 91 -58 97 -117 6 -70 -12 -116 -64 -158 -46 -38 -57 -64 -25 -64 17 0 19
-11 23 -112 6 -139 5 -138 188 -397 l135 -191 53 0 c39 0 51 3 46 12 -5 7 -84
115 -176 241 l-168 229 0 115 c0 101 3 119 21 145 12 16 28 50 35 75 36 119 0
223 -96 277 l-55 31 -245 0 c-244 0 -246 0 -295 -26 -62 -31 -104 -88 -114
-155 l-7 -49 -7 43 c-10 56 5 110 44 158 65 81 86 165 53 213 -38 54 -144 66
-254 28z"/>
<path d="M1015 1348 c-32 -18 -44 -40 -45 -80 0 -28 7 -42 31 -62 35 -30 58
-32 98 -11 40 20 57 66 41 105 -22 54 -77 75 -125 48z"/>
<path d="M2890 1226 c0 -1 35 -30 78 -64 101 -80 148 -142 107 -142 -33 0 -27
-31 17 -83 54 -63 108 -142 108 -156 0 -6 -6 -11 -14 -11 -8 0 -17 -4 -21 -10
-3 -5 26 -73 65 -151 38 -79 70 -151 70 -160 0 -15 -6 -17 -35 -12 -45 7 -45
0 4 -114 22 -49 56 -142 77 -206 l37 -117 37 0 38 0 -36 140 c-19 78 -32 143
-29 146 3 3 19 -2 36 -10 l30 -16 -15 53 c-32 109 -77 234 -106 291 -16 32
-27 60 -24 63 3 3 19 0 36 -6 l31 -10 -41 76 c-23 43 -64 105 -91 140 -27 34
-49 65 -49 68 0 3 11 5 25 5 24 0 25 2 14 23 -23 43 -125 140 -191 184 -58 37
-158 88 -158 79z"/>
<path d="M780 994 c-19 -8 -38 -20 -42 -27 -13 -21 -9 -53 10 -70 16 -15 48
-17 239 -17 200 0 221 2 236 18 34 38 20 74 -38 98 l-40 16 23 -24 c28 -31 30
-53 3 -38 -29 15 -364 13 -379 -2 -23 -23 -13 14 10 39 25 27 24 27 -22 7z"/>
<path d="M2655 266 c-75 -34 -116 -100 -123 -198 l-5 -68 65 0 65 0 6 33 c8
54 34 104 60 122 23 15 28 15 55 1 30 -16 82 -103 82 -138 0 -15 8 -18 44 -18
l44 0 -9 42 c-14 68 -70 168 -111 201 -44 36 -123 46 -173 23z"/>
<path d="M744 171 c-52 -24 -94 -78 -101 -131 -5 -33 -3 -40 11 -40 10 0 16 8
16 24 0 28 35 82 71 108 33 25 122 34 179 18 54 -15 107 -67 116 -115 4 -22
12 -35 21 -35 12 0 14 8 10 36 -9 55 -50 109 -99 133 -58 28 -165 29 -224 2z"/>
</g>
</svg>

